HIERARCHY
ROOT root
{
	OFFSET	0	13.1	24.9
	CHANNELS 6  Xposition Yposition Zposition Xrotation Yrotation Zrotation
	JOINT spine_1
	{
		OFFSET	0	9.99999	0
		CHANNELS 3  Xrotation Yrotation Zrotation
		JOINT spine_2
		{
			OFFSET	0	112	-10
			CHANNELS 3  Xrotation Yrotation Zrotation
			JOINT spine_3
			{
				OFFSET	0	206.5	19.3
				CHANNELS 3  Xrotation Yrotation Zrotation
				JOINT spine_4
				{
					OFFSET	0	110.4	14.6
					CHANNELS 3  Xrotation Yrotation Zrotation
					JOINT neck_1
					{
						OFFSET	0	71.8	-50.3
						CHANNELS 3  Xrotation Yrotation Zrotation
						JOINT neck_2
						{
							OFFSET	0	86.2	-25.8
							CHANNELS 3  Xrotation Yrotation Zrotation
							JOINT head_ee
							{
								OFFSET	0	179.8	-8.7
								CHANNELS 3  Xrotation Yrotation Zrotation
								End Site
								{
									OFFSET	1	0	0
								}
							}
						}
					}
					JOINT left_clavicle
					{
						OFFSET	-43.2	22.4	-70.8
						CHANNELS 3  Xrotation Yrotation Zrotation
						JOINT left_shoulder
						{
							OFFSET	-93.9	-5.79999	48.7
							CHANNELS 3  Xrotation Yrotation Zrotation
							JOINT left_elbow
							{
								OFFSET	-291.4	-30.8	15.2
								CHANNELS 3  Xrotation Yrotation Zrotation
								JOINT left_lowarm_twist
								{
									OFFSET	-110.7	-3.89999	13.6
									CHANNELS 3  Xrotation Yrotation Zrotation
									JOINT left_hand
									{
										OFFSET	-110.7	-3.89999	13.6
										CHANNELS 3  Xrotation Yrotation Zrotation
										JOINT left_ee
										{
											OFFSET	-80.8	-5.10001	12.1
											CHANNELS 3  Xrotation Yrotation Zrotation
											End Site
											{
												OFFSET	1	0	0
											}
										}
									}
								}
							}
						}
					}
					JOINT right_clavicle
					{
						OFFSET	43.2	22.4	-70.8
						CHANNELS 3  Xrotation Yrotation Zrotation
						JOINT right_shoulder
						{
							OFFSET	93.9	-5.79999	48.7
							CHANNELS 3  Xrotation Yrotation Zrotation
							JOINT right_elbow
							{
								OFFSET	291.4	-30.8	15.2
								CHANNELS 3  Xrotation Yrotation Zrotation
								JOINT right_lowarm_twist
								{
									OFFSET	110.7	-3.89999	13.6
									CHANNELS 3  Xrotation Yrotation Zrotation
									JOINT right_hand
									{
										OFFSET	110.7	-3.89999	13.6
										CHANNELS 3  Xrotation Yrotation Zrotation
										JOINT right_ee
										{
											OFFSET	80.8	-5.10001	12.1
											CHANNELS 3  Xrotation Yrotation Zrotation
											End Site
											{
												OFFSET	1	0	0
											}
										}
									}
								}
							}
						}
					}
				}
			}
		}
	}
	JOINT left_hip
	{
		OFFSET	-82.8	-127.5	0.300001
		CHANNELS 3  Xrotation Yrotation Zrotation
		JOINT left_knee
		{
			OFFSET	-28.2	-396.7	2.2
			CHANNELS 3  Xrotation Yrotation Zrotation
			JOINT left_ankle
			{
				OFFSET	-11.7	-411.3	35.4
				CHANNELS 3  Xrotation Yrotation Zrotation
				JOINT left_toes
				{
					OFFSET	0	-60	-88.6
					CHANNELS 3  Xrotation Yrotation Zrotation
					JOINT left_foot_ee
					{
						OFFSET	-22.5	-16.5	-42.2
						CHANNELS 3  Xrotation Yrotation Zrotation
						End Site
						{
							OFFSET	1	0	0
						}
					}
				}
			}
		}
	}
	JOINT right_hip
	{
		OFFSET	82.8	-127.5	0.300001
		CHANNELS 3  Xrotation Yrotation Zrotation
		JOINT right_knee
		{
			OFFSET	28.2	-396.7	2.2
			CHANNELS 3  Xrotation Yrotation Zrotation
			JOINT right_ankle
			{
				OFFSET	11.7	-411.3	35.4
				CHANNELS 3  Xrotation Yrotation Zrotation
				JOINT right_toes
				{
					OFFSET	0	-60	-88.6
					CHANNELS 3  Xrotation Yrotation Zrotation
					JOINT right_foot_ee
					{
						OFFSET	22.5	-16.5	-42.2
						CHANNELS 3  Xrotation Yrotation Zrotation
						End Site
						{
							OFFSET	1	0	0
						}
					}
				}
			}
		}
	}
}
MOTION
Frames: 6
Frame Time: 0.02
1123.38676782 729.541 -1793.39507074 4.71350766123 38.9839321009 2.25088849408 -2.5215 -0.0592033 -1.01213 -2.52093 0.00531806 -1.01385 -2.52042 0.261641 -0.979526 -2.52174 0.103667 -1.00855 2.2297 17.5786 4.23139 2.93204 27.3802 5.8894 -0.0 0.0 -0.0 7.15772 12.0986 13.5581 -34.8397 -27.0712 54.0404 0.354893 -9.97112 0.0309591 2.26573 0.0743019 -0.279831 1.99002 -10.7468 8.8929 -0.0 0.0 -0.0 11.1176 7.02717 -22.2784 -13.2401 48.3325 -49.5299 0.839525 22.5811 -0.167612 38.1011 0.254199 4.77202 0.63619 5.36197 -2.01709 0.0 0.0 0.0 12.6896 -11.6585 -8.96896 -51.6287 -1.36696 7.54134 -13.1327 12.4834 1.96937 28.7636 -0.0 -0.0 -0.0 0.0 -0.0 4.88057 30.1795 -16.8188 -9.09839 -0.266337 -1.36946 11.1848 -14.6902 1.59466 17.7986 -0.0 -0.0 0.0 0.0 0.0 
1114.69354017 730.2 -1802.39444576 4.48039084753 36.0491959496 2.54669581106 -2.41469 -0.0879776 -0.862422 -2.41428 -0.0329232 -0.866272 -2.41333 0.185715 -0.846773 -2.41433 0.0496577 -0.865474 1.47933 17.0894 4.99977 2.07053 26.0736 6.83093 -0.0 0.0 -0.0 6.85124 12.7507 12.9934 -36.4085 -26.8268 55.5096 0.419503 -11.7397 0.0431287 2.24704 0.0737346 -0.277512 2.02196 -10.678 9.14123 -0.0 0.0 -0.0 10.9415 6.66975 -21.8861 -10.5436 49.1068 -48.7001 1.09551 28.4872 -0.278102 38.622 0.279537 4.83362 0.661056 5.718 -2.03465 0.0 0.0 0.0 15.0816 -9.26803 -10.2004 -50.4635 -1.26277 7.3952 -12.0934 13.0147 1.8127 28.9122 -0.0 -0.0 -0.0 0.0 -0.0 3.68613 30.0049 -16.1895 -9.32485 -0.270176 -1.404 11.4229 -19.3228 1.64872 17.9796 -0.0 -0.0 0.0 0.0 0.0 
1114.03441018 730.2 -1801.87489555 4.48697788918 36.1643629376 2.53551792508 -2.41469 -0.0879776 -0.862422 -2.41428 -0.0329232 -0.866272 -2.41333 0.185715 -0.846773 -2.41433 0.0496577 -0.865474 1.47933 17.0894 4.99977 2.07053 26.0736 6.83093 -0.0 0.0 -0.0 6.85124 12.7507 12.9934 -36.4085 -26.8268 55.5096 0.419503 -11.7397 0.0431287 2.24704 0.0737346 -0.277512 2.02196 -10.678 9.14123 -0.0 0.0 -0.0 10.9415 6.66975 -21.8861 -10.5436 49.1068 -48.7001 1.09551 28.4872 -0.278102 38.622 0.279537 4.83362 0.661056 5.718 -2.03465 0.0 0.0 0.0 15.0816 -9.26803 -10.2004 -50.4635 -1.26277 7.3952 -12.0934 13.0147 1.8127 28.9122 -0.0 -0.0 -0.0 0.0 -0.0 3.68613 30.0049 -16.1895 -9.32485 -0.270176 -1.404 11.4229 -19.3228 1.64872 17.9796 -0.0 -0.0 0.0 0.0 0.0 
1091.59704688 730.236 -1802.12005809 4.26386845389 37.2540869541 2.34898640414 -2.50701 -0.146904 -0.881985 -2.50658 -0.0904859 -0.889544 -2.50465 0.137246 -0.883539 -2.50574 -0.00400948 -0.894125 1.14212 17.4593 4.78976 1.75653 27.0058 6.6742 -0.0 0.0 -0.0 7.01413 13.607 13.2265 -36.5312 -26.4637 56.4992 0.406059 -11.3735 0.0404352 3.06033 0.0977287 -0.378625 2.12107 -9.30681 10.4217 -0.0 0.0 -0.0 10.9357 6.4654 -21.8696 -8.49667 48.5515 -48.2392 1.16567 30.0027 -0.31238 37.6323 0.231876 4.71638 0.914649 9.47799 -2.1494 0.0 0.0 0.0 17.2137 -7.6423 -10.6418 -50.5792 -1.27298 7.4098 -12.919 13.7534 1.94021 29.53 -0.0 -0.0 -0.0 0.0 -0.0 2.92781 29.6043 -15.2246 -10.0618 -0.281724 -1.51648 11.4836 -18.3885 1.65188 18.0666 -0.0 -0.0 0.0 0.0 0.0 
1080.39087918 727.243 -1810.54192234 5.11402870038 34.005285915 1.85007921208 -2.81055 0.00798863 -0.759073 -2.81023 0.0562728 -0.757027 -2.81065 0.249594 -0.716911 -2.81134 0.133242 -0.747331 0.705309 17.7522 6.07239 1.28794 26.5914 8.16082 -0.0 0.0 -0.0 6.90542 14.2278 13.0068 -36.8476 -25.9752 58.13 0.412776 -11.5566 0.0417703 3.82841 0.119068 -0.474417 2.23078 -8.50473 11.5259 -0.0 0.0 -0.0 11.1345 7.18817 -22.3183 -6.62587 49.785 -48.3823 1.33333 33.4427 -0.400575 36.7465 0.190941 4.61077 1.03776 12.8231 -1.53744 0.0 0.0 0.0 20.9243 -14.1595 -11.3944 -44.9103 -0.808331 6.67156 -16.5057 15.0958 2.49235 29.9466 -0.0 -0.0 -0.0 0.0 -0.0 1.03255 31.113 -14.7278 -10.2335 -0.284207 -1.54272 12.8293 -20.2568 1.84919 19.601 -0.0 -0.0 0.0 0.0 0.0 
1063.59672162 722.675 -1817.0309196 4.97263662078 34.2122850558 1.66767357371 -2.90781 0.116597 -0.736991 -2.90752 0.163256 -0.728078 -2.90938 0.346638 -0.660755 -2.90991 0.237936 -0.707204 -2.55596 17.5098 7.4291 -2.15303 26.024 10.0918 -0.0 0.0 -0.0 6.71853 15.0073 12.6502 -36.9616 -26.0109 58.7822 0.467166 -13.0302 0.053352 3.84018 0.119385 -0.475887 2.19841 -6.88616 12.0026 -0.0 0.0 -0.0 11.1535 6.54738 -22.3482 -3.41809 50.3126 -49.3414 1.39037 34.5551 -0.432472 36.3538 0.173322 4.56377 1.06771 15.5439 -0.551326 0.0 0.0 0.0 24.1778 -12.84 -11.8326 -40.657 -0.509092 6.09 -17.3821 18.0253 2.64473 30.7233 -0.0 -0.0 -0.0 0.0 -0.0 -0.191175 31.5073 -13.7009 -10.5853 -0.289047 -1.59648 18.8499 -19.0906 2.64347 18.978 -0.0 -0.0 0.0 0.0 0.0 
